<svg xmlns="http://www.w3.org/2000/svg" viewBox="0 0 100 100">
  <circle cx="50" cy="50" r="15" fill="#78350f"/>
  <g fill="#f59e0b">
    <ellipse cx="50" cy="20" rx="8" ry="15" transform="rotate(0,50,50)"/>
    <ellipse cx="50" cy="20" rx="8" ry="15" transform="rotate(45,50,50)"/>
    <ellipse cx="50" cy="20" rx="8" ry="15" transform="rotate(90,50,50)"/>
    <ellipse cx="50" cy="20" rx="8" ry="15" transform="rotate(135,50,50)"/>
    <ellipse cx="50" cy="20" rx="8" ry="15" transform="rotate(180,50,50)"/>
    <ellipse cx="50" cy="20" rx="8" ry="15" transform="rotate(225,50,50)"/>
    <ellipse cx="50" cy="20" rx="8" ry="15" transform="rotate(270,50,50)"/>
    <ellipse cx="50" cy="20" rx="8" ry="15" transform="rotate(315,50,50)"/>
  </g>
  <circle cx="50" cy="50" r="12" fill="#92400e"/>
  <circle cx="50" cy="50" r="8" fill="#78350f"/>
</svg>
